<svg width="256" height="256" viewBox="0 0 256 256" fill="none" xmlns="http://www.w3.org/2000/svg">
<rect width="256" height="256" rx="56" fill="#1A103E"/>
<path d="M95.6651 86.3918C98.5349 86.3217 100.35 86.2773 102.672 87.8253V66.9021C102.672 66.9021 101.383 65 93.7545 65C85.9635 65 78.6594 66.4608 71.8423 69.3825C65.0251 72.3041 59.1007 76.6054 54.069 82.2863C49.0373 87.805 45.0606 94.7033 42.139 102.981C39.3797 111.259 38 120.755 38 131.467C38 140.394 38.9739 148.51 40.9216 155.814C43.0317 163.118 46.1968 169.367 50.4169 174.561C54.7994 179.755 60.318 183.813 66.9729 186.735C73.6277 189.494 81.6622 190.874 91.0763 190.874C96.108 190.874 100.653 190.468 104.711 189.656C108.768 189.007 112.258 188.277 115.18 187.465C118.101 186.654 120.374 185.842 121.997 185.03C123.337 184.422 125.433 183.636 126.602 183.213C132.227 188.584 140.537 191.269 151.533 191.269C162.895 191.269 172.715 189.565 180.993 186.156C189.433 182.748 196.331 177.229 201.688 169.601C207.206 161.81 211.264 151.746 213.861 139.41C216.62 126.912 218 111.655 218 93.6381C218 90.5541 217.838 87.5514 217.513 84.6297C217.351 81.5458 217.107 78.8676 216.783 76.5952C216.458 74.1605 216.215 72.2128 216.052 70.752L215.565 68.8042H187.323L187.81 71.2389C187.972 72.862 188.216 74.9721 188.54 77.5691C189.027 80.1661 189.352 83.1689 189.514 86.5775C189.839 89.8237 190.001 93.1512 190.001 96.5597C190.001 105.812 189.514 114.982 188.54 124.072C187.566 132.999 185.943 141.033 183.671 148.175C181.398 155.155 178.314 160.836 174.419 165.218C170.523 169.601 165.654 171.792 159.811 171.792C153.968 171.792 149.829 169.682 147.394 165.462C144.959 161.241 143.742 155.723 143.742 148.906V68.8042H115.986V149.636C115.986 155.826 116.595 161.389 117.812 166.325C117.029 166.593 115.989 166.904 114.693 167.257C113.07 167.744 111.122 168.312 108.85 168.961C106.577 169.448 104.224 169.935 101.789 170.422C99.3543 170.747 97.0008 170.909 94.7284 170.909C91.8067 170.909 88.804 170.503 85.72 169.692C82.6361 168.718 79.7144 166.689 76.9551 163.605C74.3581 160.521 72.1669 156.22 70.3814 150.701C68.7583 145.02 67.9467 137.392 67.9467 127.815C67.9467 118.401 68.7583 110.935 70.3814 105.416C72.1669 99.8973 74.3581 95.7583 76.9551 92.999C79.5521 90.0774 82.3114 88.2919 85.2331 87.6427C88.317 86.8311 91.0763 86.4253 93.511 86.4253C94.2967 86.4253 95.0085 86.4079 95.6651 86.3918Z" fill="#E779C1"/>
</svg>
