<svg  viewBox="0 0 320 313"  xmlns="http://www.w3.org/2000/svg">
<path d="M320 160C320 231.7 272.8 292.4 207.8 312.7C268.3 292.7 312 235.7 312 168.4C312 84.4 244 16.4 160 16.4C76 16.4 8 84.4 8 168.4C8 235.7 51.6 292.7 112.2 312.7C47.2 292.4 0 231.7 0 160C0 71.6 71.6 0 160 0C248.4 0 320 71.6 320 160Z" />
<path d="M216.1 175.7C221.9 188.6 220.1 251.1 218.3 263.5C216.5 275.9 207.6 275.4 207.6 275.4H100C155.3 273.5 171.4 165.2 171.4 165.2H133.9C133.5 206.9 131 241 131 241H102C102 241 113.7 202.6 117.1 173.6C117.6 169.1 118 164.9 118 161C118.4 132 102 81.0001 102 81.0001H131C133.1 101.8 133.9 125.2 134 147.5H171.4C171.4 147.5 155.3 39.2001 100 37.3001H207.6C207.6 37.3001 216.5 36.8001 218.3 49.2001C220.1 61.6001 221.9 124.1 216.1 136.9C211.5 147.1 202.6 154 199.2 156.3C202.6 158.6 211.5 165.4 216.1 175.7Z" />
</svg>
